<svg xmlns="http://www.w3.org/2000/svg" version="1.1" xmlns:xlink="http://www.w3.org/1999/xlink" viewBox="0 0 200 200" width="200" height="200"><rect width="200" height="200" fill="url('#gradient')"></rect><defs><linearGradient id="gradient" gradientTransform="rotate(360 0.5 0.5)"><stop offset="0%" stop-color="#646cff"></stop><stop offset="100%" stop-color="#61dafb"></stop></linearGradient></defs><g><g fill="#ffffff" transform="matrix(4.234321157822191,0,0,4.234321157822191,10.125950199905546,130.10539886394423)" stroke="#000000" stroke-width="0"><path d="M3.65-14.22L6.28-8.05L8.90-14.22L12.60-14.22L8.02-5.11L8.02 0L4.54 0L4.54-5.11L-0.03-14.22L3.65-14.22ZM22.83-14.22L24.81-5.30L26.45-14.22L29.84-14.22L26.83 0L23.27 0L21.37-8.11L19.50 0L15.96 0L12.93-14.22L16.34-14.22L17.97-5.30L19.92-14.22L22.83-14.22ZM42.48-14.22L42.48-11.57L38.21-11.57L38.21 0L34.79 0L34.79-11.57L30.60-11.57L30.60-14.22L42.48-14.22Z"></path></g></g></svg>